<?xml version="1.0" standalone="no"?>
<!DOCTYPE svg PUBLIC "-//W3C//DTD SVG 20010904//EN"
 "http://www.w3.org/TR/2001/REC-SVG-20010904/DTD/svg10.dtd">
<svg version="1.0" xmlns="http://www.w3.org/2000/svg"
 width="300.000000pt" height="234.000000pt" viewBox="0 0 300.000000 234.000000"
 preserveAspectRatio="xMidYMid meet">
<metadata>
Created by potrace 1.10, written by Peter Selinger 2001-2011
</metadata>
<g transform="translate(0.000000,234.000000) scale(0.100000,-0.100000)"
fill="#000000" stroke="none">
<path d="M1663 2253 c26 -2 68 -2 95 0 26 2 4 3 -48 3 -52 0 -74 -1 -47 -3z"/>
<path d="M1844 2245 c-8 -19 3 -35 26 -35 22 0 33 23 17 39 -15 15 -37 14 -43
-4z"/>
<path d="M1920 2216 c0 -2 34 -20 77 -40 146 -70 275 -179 368 -312 27 -38 50
-71 52 -73 2 -2 6 -2 9 2 18 18 -150 215 -247 289 -108 82 -259 160 -259 134z"/>
<path d="M1328 2143 c-61 -54 -138 -153 -138 -177 0 -6 14 12 30 38 37 58 129
158 140 151 4 -3 10 2 14 10 8 23 0 19 -46 -22z"/>
<path d="M1618 2125 c-10 -23 -9 -32 5 -57 10 -18 14 -35 9 -44 -10 -18 -3
-84 9 -84 15 0 10 -44 -7 -68 -8 -12 -24 -22 -35 -22 -41 0 -87 -29 -119 -75
l-32 -46 -79 2 c-43 2 -81 1 -84 -2 -6 -7 10 -144 27 -229 l13 -65 54 -3 53
-3 -6 -32 c-16 -73 -19 -137 -7 -151 10 -12 7 -15 -20 -18 -31 -3 -33 -6 -62
-93 -16 -49 -31 -91 -31 -92 -1 -1 -23 5 -48 15 -50 19 -97 57 -146 117 -30
37 -32 45 -32 116 0 87 -16 118 -63 122 -41 3 -49 24 -20 55 20 21 23 33 18
60 -5 28 -2 38 20 58 31 29 25 44 -18 44 -18 0 -45 7 -61 15 -41 22 -92 22
-115 1 -11 -10 -28 -17 -38 -16 -38 4 -43 0 -43 -35 0 -44 23 -90 53 -107 12
-7 42 -15 67 -18 l45 -5 -23 -23 c-17 -17 -30 -22 -50 -18 -36 8 -84 -22 -105
-67 -24 -49 -21 -105 9 -192 30 -88 28 -112 -18 -212 -25 -52 -32 -81 -32
-132 l-1 -65 77 -40 c42 -23 79 -38 82 -35 4 3 1 49 -5 102 -13 105 -10 127
21 127 11 0 20 4 20 10 0 18 -45 4 -55 -18 -7 -17 -18 -22 -48 -22 -23 0 -36
-4 -32 -10 3 -5 20 -10 37 -10 27 0 30 -3 25 -26 -2 -14 2 -46 9 -72 8 -25 13
-49 12 -53 -2 -4 -31 6 -65 24 l-63 31 0 54 c0 37 9 74 29 120 53 121 55 142
26 223 -29 82 -33 158 -8 200 20 34 68 57 91 42 26 -16 101 -235 109 -316 6
-65 5 -71 -10 -59 -9 8 -21 29 -27 48 -6 19 -16 34 -21 34 -15 0 19 -73 46
-97 24 -22 83 -43 118 -43 30 0 19 -27 -14 -34 -52 -10 -96 -7 -139 10 -33 13
-48 29 -73 72 -17 31 -33 50 -35 44 -6 -20 47 -102 79 -121 16 -10 26 -21 23
-24 -4 -3 144 -6 327 -7 l334 0 2 32 c1 18 20 87 41 153 22 66 38 123 36 127
-3 5 -51 8 -107 8 -129 0 -132 3 -115 119 l12 81 58 0 c57 0 58 1 58 28 0 33
-37 259 -45 271 -3 5 -14 7 -25 4 -26 -7 -25 1 3 39 27 37 98 73 109 55 9 -15
136 -14 164 1 24 12 88 -16 121 -53 19 -21 46 -82 67 -153 8 -23 6 -22 -160
85 -16 11 -17 14 -4 22 46 29 52 38 46 59 -10 30 -37 27 -70 -7 -22 -23 -41
-31 -82 -37 -36 -4 -54 -11 -54 -20 0 -8 11 -14 26 -14 26 0 26 0 -15 -45 -22
-24 -41 -49 -41 -55 0 -13 49 6 75 29 40 36 44 35 115 -40 l70 -73 0 -142 0
-142 -31 -26 c-26 -23 -40 -26 -100 -26 -44 0 -69 -4 -69 -11 0 -8 24 -10 73
-8 l72 4 -7 -104 c-8 -117 -16 -132 -72 -134 -48 -1 -64 18 -67 75 -5 86 -19
75 -19 -14 l0 -88 84 0 83 0 7 92 c3 50 6 112 6 137 0 38 5 51 31 75 l30 29
-3 138 -3 138 22 -14 c46 -30 86 -10 86 43 0 15 -12 67 -27 117 -22 69 -36 97
-65 126 -43 44 -105 64 -146 49 -14 -5 -49 -10 -78 -10 l-51 0 22 20 c13 13
22 33 22 51 0 22 6 32 25 39 36 14 31 20 -11 13 l-35 -6 4 39 c5 44 16 74 27
74 14 0 70 -32 70 -40 0 -5 3 -15 6 -24 4 -10 1 -16 -9 -16 -22 0 -30 -79 -11
-107 8 -13 20 -23 26 -23 6 0 4 8 -5 18 -29 32 -21 64 28 110 73 70 56 121
-50 145 -33 8 -68 18 -77 22 -13 5 -21 0 -30 -20z m207 -346 c0 -7 -8 -15 -17
-17 -18 -3 -25 18 -11 32 10 10 28 1 28 -15z m-85 -54 c6 -8 48 -35 92 -61
134 -79 156 -105 125 -148 -13 -17 -16 -17 -44 -3 -17 9 -64 50 -104 92 -40
41 -78 75 -84 75 -6 0 -16 9 -23 20 -7 11 -22 21 -35 21 -20 2 -15 3 54 18 4
0 12 -6 19 -14z m-217 -117 c10 -62 21 -125 24 -140 l5 -28 -106 0 c-117 0
-106 -7 -120 76 -5 28 -1 35 34 58 28 18 40 34 40 49 0 34 -7 37 -47 20 -42
-17 -53 -8 -53 45 l0 32 103 0 103 0 17 -112z m177 76 c0 -8 -27 -30 -55 -45
-13 -8 -10 -1 9 20 28 29 46 39 46 25z m-310 -59 c0 -17 -59 -57 -75 -52 -24
8 -13 33 22 49 49 21 53 21 53 3z m-460 -16 c0 -6 -10 -24 -22 -39 -13 -15
-28 -35 -33 -45 -20 -34 -73 14 -60 55 9 29 115 56 115 29z m71 -69 c2 -41 -8
-70 -25 -70 -7 0 -25 13 -40 29 -26 27 -27 31 -13 45 9 9 25 16 36 16 13 0 21
6 21 17 0 32 18 -1 21 -37z m-41 -97 c0 -7 9 -22 20 -33 20 -20 20 -20 -17
-20 -47 0 -83 9 -83 21 0 5 9 9 19 9 20 0 31 18 31 53 0 20 0 20 15 1 8 -10
15 -25 15 -31z m106 -270 c7 -185 6 -192 -12 -187 -17 5 -19 15 -19 112 0 59
-4 152 -8 207 -8 100 -8 100 12 80 18 -18 21 -39 27 -212z m-53 110 c4 -54 7
-140 7 -190 0 -76 -3 -93 -15 -93 -11 0 -15 11 -15 43 0 23 -7 69 -14 102 -10
39 -11 64 -5 71 15 19 29 74 18 74 -5 0 -9 -10 -9 -22 0 -23 -16 -56 -23 -48
-5 8 -57 145 -57 153 0 4 24 7 53 7 l54 0 6 -97z m154 -190 c36 -30 37 -33 21
-49 -15 -16 -19 -15 -62 12 -45 29 -46 30 -46 83 l0 55 25 -35 c14 -19 42 -48
62 -66z m443 79 c0 -10 -4 -22 -8 -27 -5 -6 -16 -31 -25 -57 -10 -27 -24 -68
-33 -92 l-16 -44 -102 1 c-97 2 -101 3 -102 24 -1 13 4 34 11 47 7 13 20 46
29 73 30 91 33 93 147 93 89 0 99 -2 99 -18z m-414 -168 c18 -3 46 -1 61 5 28
11 27 11 -8 7 -50 -6 -71 9 -36 25 20 9 33 9 57 -1 32 -13 33 -22 6 -80 -14
-31 -32 -32 -76 -2 -24 16 -43 22 -62 18 -46 -9 -58 1 -58 50 l0 44 41 -30
c23 -16 56 -32 75 -36z m-3 -51 c36 -11 15 -23 -38 -23 -30 0 -55 4 -55 8 0
14 43 31 60 25 8 -3 23 -8 33 -10z"/>
<path d="M1435 1100 c-15 -29 -15 -31 10 -56 24 -24 28 -25 48 -11 42 27 29
97 -18 97 -17 0 -29 -9 -40 -30z m55 -34 c-7 -9 -17 -16 -22 -16 -16 0 -21 30
-7 46 11 13 14 13 27 0 13 -12 13 -18 2 -30z"/>
<path d="M2015 2107 c135 -73 238 -164 315 -277 43 -63 100 -176 100 -197 0
-7 5 -13 11 -13 27 0 -56 166 -132 263 -66 85 -184 184 -270 227 -79 40 -99
38 -24 -3z"/>
<path d="M1141 1858 c-17 -50 -29 -93 -27 -95 2 -3 14 26 26 64 13 37 29 80
37 96 7 15 9 27 4 27 -5 0 -23 -41 -40 -92z"/>
<path d="M482 1817 c-7 -8 -6 -17 3 -30 11 -16 13 -15 17 13 5 32 -3 38 -20
17z"/>
<path d="M548 1742 c-7 -26 16 -42 35 -23 8 8 7 11 -5 11 -9 0 -18 8 -20 18
-3 14 -5 12 -10 -6z"/>
<path d="M1594 1576 c-3 -7 -4 -42 -2 -77 l3 -64 58 -3 57 -3 0 81 0 80 -55 0
c-38 0 -57 -4 -61 -14z m106 -71 l0 -65 -45 0 -45 0 0 65 0 65 45 0 45 0 0
-65z"/>
<path d="M2575 1460 c3 -14 10 -61 15 -105 l9 -80 -5 89 c-2 48 -9 96 -14 105
-8 12 -9 11 -5 -9z"/>
<path d="M1997 1422 c-15 -15 -27 -35 -27 -43 1 -7 7 -2 16 13 27 50 88 64
124 28 22 -22 27 -86 9 -123 -10 -21 -10 -21 5 -3 28 35 17 125 -18 148 -6 4
-27 8 -47 8 -26 0 -42 -7 -62 -28z"/>
<path d="M531 1294 c-22 -28 -24 -43 -11 -84 7 -20 8 -16 9 23 1 42 4 49 34
67 28 17 29 20 10 20 -12 0 -31 -12 -42 -26z"/>
<path d="M449 1184 c-22 -58 -39 -120 -38 -144 0 -14 8 7 18 45 9 39 23 81 30
93 7 13 10 26 7 29 -3 3 -11 -7 -17 -23z"/>
<path d="M2215 1192 c17 -10 38 -21 48 -25 24 -9 22 -48 -3 -54 -19 -5 -29
-23 -12 -23 43 0 58 82 15 88 -12 2 -27 10 -33 18 -7 8 -20 14 -29 14 -10 0
-4 -7 14 -18z"/>
<path d="M2060 1150 c0 -46 -2 -50 -24 -50 -25 0 -43 30 -31 50 3 6 -1 7 -9 4
-35 -13 -5 -56 47 -68 l27 -6 0 60 c0 33 -2 60 -5 60 -3 0 -5 -22 -5 -50z"/>
<path d="M2494 1106 c-8 -21 3 -36 27 -36 15 0 20 6 17 22 -4 27 -35 37 -44
14z"/>
<path d="M2020 1020 c0 -50 25 -98 55 -106 56 -14 95 28 95 102 l0 34 -75 0
-75 0 0 -30z m114 4 c23 -9 20 -37 -8 -63 -28 -26 -45 -24 -67 7 -25 36 -14
62 26 62 19 0 40 -3 49 -6z"/>
<path d="M450 929 c0 -19 -1 -19 -16 -4 -9 9 -19 13 -22 10 -4 -3 0 -10 7 -15
8 -4 11 -15 8 -24 -7 -18 8 -22 18 -5 4 6 13 8 21 5 16 -6 19 10 3 19 -6 4 -8
13 -5 21 3 8 1 14 -4 14 -6 0 -10 -9 -10 -21z"/>
<path d="M2520 873 c-7 -21 -33 -78 -57 -128 -24 -49 -40 -85 -34 -80 25 25
117 232 107 242 -2 2 -10 -13 -16 -34z"/>
<path d="M957 814 c-3 -20 -3 -49 0 -66 l6 -30 66 3 c49 2 65 0 63 -9 -5 -26
-22 -249 -22 -299 0 -53 0 -53 33 -53 l32 -1 -35 -17 c-27 -13 -36 -24 -38
-48 -4 -41 20 -60 101 -80 72 -18 131 -13 141 12 8 21 -45 71 -108 103 -27 13
-43 26 -38 30 25 15 135 366 136 433 1 30 4 44 11 37 15 -15 7 -89 -19 -166
l-24 -72 50 -118 c27 -65 51 -120 53 -122 2 -2 26 2 53 9 l50 12 -43 166 c-24
92 -55 199 -68 237 l-24 70 -185 3 -185 3 -6 -37z m308 -23 c6 -11 -25 -139
-48 -191 -8 -19 -23 -55 -32 -80 -57 -154 -76 -155 -70 -3 3 65 7 134 10 154
7 47 -24 89 -65 89 -38 0 -60 9 -60 26 0 11 25 14 129 14 72 0 132 -4 136 -9z
m87 -127 c5 -16 11 -37 13 -47 2 -10 13 -51 25 -93 23 -84 26 -128 8 -122 -14
5 -18 12 -63 113 -36 78 -37 92 -20 158 2 4 3 12 4 18 2 21 25 3 33 -27z
m-177 -337 c12 -10 14 -16 7 -21 -7 -4 -12 -12 -12 -18 0 -6 9 -3 20 7 21 19
28 7 8 -13 -9 -9 -9 -12 0 -12 7 0 12 5 12 10 0 16 19 12 51 -11 37 -26 38
-49 2 -48 -24 2 -25 2 -5 6 38 7 24 19 -18 15 -22 -2 -63 3 -91 12 -28 10 -53
15 -56 13 -4 -5 67 -33 102 -40 11 -3 4 -3 -16 -2 -61 5 -94 26 -97 63 -3 27
0 32 17 32 12 0 21 5 21 10 0 14 33 12 55 -3z"/>
<path d="M1406 810 c11 -60 61 -205 89 -251 60 -103 60 -101 37 -160 -19 -50
-22 -54 -49 -51 -18 2 -35 -3 -43 -12 -7 -9 -16 -14 -20 -11 -12 7 -23 -50
-15 -75 8 -25 43 -35 125 -35 45 0 74 5 92 17 14 9 47 18 74 20 l49 3 -2 40
c0 22 -4 70 -8 106 -6 50 -3 87 14 160 18 85 51 263 51 282 0 16 -23 6 -42
-18 -11 -14 -26 -25 -33 -25 -8 0 -16 -4 -19 -8 -2 -4 11 -6 30 -4 l36 4 -8
-48 c-4 -27 -13 -69 -20 -94 -8 -25 -14 -58 -14 -75 -1 -16 -6 -43 -13 -59
-12 -27 -14 -28 -30 -12 -14 15 -17 39 -17 162 0 91 4 143 10 139 10 -6 65 18
74 33 2 4 -21 8 -53 8 l-58 0 5 -182 c5 -197 0 -241 -23 -188 -22 52 -37 140
-44 257 l-6 109 -88 2 -87 2 6 -36z m140 -2 c4 -6 8 -21 9 -32 22 -201 25
-257 14 -251 -5 4 -9 1 -9 -6 0 -8 -7 -5 -20 6 -11 10 -17 21 -15 25 3 4 -2
13 -10 20 -8 7 -15 19 -15 26 0 8 -5 14 -11 14 -6 0 -9 9 -6 20 3 11 1 18 -4
14 -5 -3 -9 -2 -10 3 -1 9 -2 13 -22 88 -21 73 -14 85 44 85 26 0 51 -5 55
-12z m64 -334 c6 -14 10 -28 10 -30 0 -11 -45 9 -57 24 -19 24 -16 32 12 32
18 0 28 -7 35 -26z m110 -23 c0 -36 -10 -48 -36 -43 -19 3 -24 11 -24 33 0 26
4 29 30 29 23 0 30 -5 30 -19z m-80 -31 c0 -5 -10 -30 -22 -55 -22 -45 -45
-56 -77 -36 -11 7 -11 15 -1 47 7 22 15 42 17 47 6 11 83 9 83 -3z m56 -35 c4
-8 10 -13 14 -10 5 3 13 -14 17 -37 l9 -43 -55 -3 c-72 -4 -81 6 -53 63 22 46
56 61 68 30z m-189 -81 c-2 -13 0 -24 4 -24 5 0 9 6 9 14 0 8 5 18 11 22 9 5
10 -1 5 -20 -4 -18 -3 -25 4 -21 5 3 10 13 10 21 0 8 2 14 5 14 15 0 85 -42
85 -50 0 -15 -50 -32 -79 -27 -23 4 -23 4 5 6 16 0 39 8 50 17 19 15 19 16 -1
7 -11 -4 -57 -8 -103 -7 -45 0 -76 -3 -70 -8 7 -4 30 -8 51 -8 20 0 37 -4 37
-9 0 -5 -8 -8 -17 -6 -10 2 -35 7 -55 10 -49 8 -57 33 -22 72 19 22 32 29 51
25 20 -4 24 -9 20 -28z"/>
<path d="M1968 833 c18 -2 45 -2 60 0 15 2 0 4 -33 4 -33 0 -45 -2 -27 -4z"/>
<path d="M2113 828 c9 -7 18 -31 20 -53 3 -35 4 -34 5 13 2 47 0 52 -20 52
-20 0 -20 -1 -5 -12z"/>
<path d="M591 823 c-1 -7 6 -31 15 -53 18 -45 82 -91 125 -89 21 1 20 2 -6 8
-64 16 -97 45 -119 107 -8 21 -15 33 -15 27z"/>
<path d="M426 691 c7 -39 33 -104 33 -81 0 8 -9 38 -20 65 -15 39 -17 42 -13
16z"/>
<path d="M856 655 c-10 -28 -7 -263 4 -270 6 -4 10 -3 9 2 -1 4 -1 21 0 37 1
33 11 30 16 -6 1 -12 8 -69 16 -126 8 -65 9 -106 3 -112 -5 -5 -52 -12 -104
-15 -77 -5 -99 -3 -115 10 -30 24 -2 43 68 47 77 4 73 15 -7 16 -73 1 -93 -10
-102 -55 l-6 -33 151 0 c140 0 152 1 147 18 -5 15 -39 284 -53 422 -7 66 -17
91 -27 65z"/>
<path d="M1958 647 c-16 -13 -28 -34 -30 -52 -3 -29 -6 -30 -58 -35 l-55 -5
-7 -45 c-16 -93 -36 -425 -28 -441 11 -19 170 -29 459 -29 197 0 221 6 221 60
0 16 -18 116 -40 222 -35 167 -44 196 -66 216 -15 13 -38 22 -58 22 -37 0 -63
17 -68 45 -2 11 -10 19 -17 17 -7 -1 -10 2 -7 7 3 5 -5 16 -19 25 -18 12 -48
16 -112 16 -76 0 -92 -3 -115 -23z m212 -10 c0 -19 -181 -18 -187 1 -4 9 19
12 91 12 74 0 96 -3 96 -13z m31 -39 c17 -28 -12 -38 -108 -38 -99 0 -133 10
-133 38 0 15 12 17 117 15 81 -1 119 -6 124 -15z m149 -75 c10 -10 26 -66 39
-128 12 -60 31 -154 43 -207 17 -80 19 -100 8 -113 -11 -13 -48 -15 -244 -15
l-233 0 5 30 c3 25 -26 201 -45 265 -5 18 -5 18 11 2 13 -13 35 -17 95 -17 76
0 77 0 88 -31 11 -29 14 -30 65 -27 50 3 53 5 56 31 3 26 5 27 68 27 36 0 64
4 64 10 0 6 -78 10 -215 10 l-214 0 -11 40 c-5 22 -15 58 -21 81 -5 22 -12 46
-15 53 -4 10 41 12 217 10 200 -3 224 -5 239 -21z m-479 -50 c7 -32 16 -61 21
-64 10 -7 38 -148 32 -163 -3 -7 2 -43 10 -81 12 -54 12 -73 3 -81 -17 -17
-115 -24 -127 -9 -12 15 -5 304 9 367 6 27 11 51 10 55 -3 21 2 33 15 33 10 0
19 -20 27 -57z m357 -155 c3 -15 -4 -18 -46 -18 -42 0 -51 3 -55 20 -5 19 -2
21 46 18 40 -2 53 -7 55 -20z"/>
<path d="M1990 90 c0 -6 80 -10 220 -10 140 0 220 4 220 10 0 6 -80 10 -220
10 -140 0 -220 -4 -220 -10z"/>
<path d="M983 490 c0 -36 2 -50 4 -32 2 17 2 47 0 65 -2 17 -4 3 -4 -33z"/>
<path d="M541 455 c22 -33 112 -125 144 -147 17 -12 10 -2 -17 23 -26 24 -68
67 -94 94 -26 28 -41 41 -33 30z"/>
<path d="M856 354 c-9 -23 -7 -52 3 -59 6 -3 10 12 9 35 0 44 -3 48 -12 24z"/>
<path d="M1000 222 c0 -67 6 -72 81 -72 38 0 69 4 69 9 0 4 -22 6 -50 3 -61
-6 -84 9 -75 48 4 20 2 29 -9 33 -12 5 -16 0 -16 -21z"/>
</g>
</svg>
