<?xml version="1.0" encoding="utf-8"?>
<!-- Generator: Adobe Illustrator 25.2.1, SVG Export Plug-In . SVG Version: 6.00 Build 0)  -->
<svg version="1.1" id="Layer_1" xmlns="http://www.w3.org/2000/svg" xmlns:xlink="http://www.w3.org/1999/xlink" x="0px" y="0px"
	 viewBox="0 0 1440 882" style="enable-background:new 0 0 1440 882;" xml:space="preserve">
<style type="text/css">
	.st0{fill:#FFFFFF;}
</style>
<g>
	<path class="st0" d="M1203,767.6c-6.7-19.1-3.4-40.2,9-56.3l228-297.6v-78.6l-247.5,328.5c-26.1,34.6-75.3,41.5-109.9,15.5
		L841.7,497.9c-34.6-26.1-18.6-64.8-14.4-90.4l49.2-232.9L1008.1,0H0v882h1440v-27.8L1245.2,806
		C1225.5,801.1,1209.7,786.8,1203,767.6z"/>
	<path class="st0" d="M1216.7,116.9c-7.4,10.2-4.1,23.8,7.4,30.3c11.5,6.5,26.9,3.6,34.3-6.6L1360.7,0h-58.9L1216.7,116.9z"/>
	<path class="st0" d="M1387.7,0l-114.3,157.2c-7.4,10.2-4.1,23.8,7.4,30.3c11.5,6.5,26.9,3.6,34.3-6.6L1440,9.2V0H1387.7z"/>
	<path class="st0" d="M1325.1,197.8c-7.4,10.2-4.1,23.8,7.4,30.3c11.5,6.5,26.9,3.6,34.3-6.6l73.2-100.7v-81L1325.1,197.8z"/>
</g>
</svg>
