<svg xmlns="http://www.w3.org/2000/svg" width="147.016" height="53.566" viewBox="0 0 147.016 53.566"><g transform="translate(-192 -169)"><path d="M141.571,53.566H5.445C2.452,53.566,0,50.552,0,46.871V6.7C0,3.015,2.452,0,5.445,0H141.571c2.993,0,5.445,3.015,5.445,6.7V46.871C147.017,50.552,144.565,53.566,141.571,53.566Z" transform="translate(192 169)" fill="#fff"/><g transform="translate(0 0.413)"><path d="M186.707,86.091h-4.736l-1.15,3.161h-2.081l4.631-11.808h1.965l4.736,11.808h-2.178Zm-4.133-1.615H186.1l-1.263-3.381c-.172-.466-.345-.983-.512-1.548-.153.5-.32,1.01-.5,1.532Z" transform="translate(61.437 116.482)" fill="#252525"/><path d="M229.166,91.611q0-.977-.065-2.154h1.884a9.352,9.352,0,0,1,.145,1.117,3.568,3.568,0,0,1,2.692-1.281,3.034,3.034,0,0,1,2.84,1.847,5.613,5.613,0,0,1,.46,2.423,6.04,6.04,0,0,1-.538,2.633,3.768,3.768,0,0,1-1.47,1.653,4.2,4.2,0,0,1-2.183.563,5.36,5.36,0,0,1-1.769-.3v3.643l-2.014.172Zm5.293,4.488a3.975,3.975,0,0,0,.617-2.423,3.61,3.61,0,0,0-.512-2.154,1.615,1.615,0,0,0-1.346-.662,2.173,2.173,0,0,0-1.077.269,4.044,4.044,0,0,0-.945.74v4.711a3.053,3.053,0,0,0,.7.232,3.814,3.814,0,0,0,.792.086,2.089,2.089,0,0,0,1.771-.8Z" transform="translate(23.181 107.481)" fill="#252525"/><path d="M267.372,91.611q0-.977-.065-2.154h1.885a8.877,8.877,0,0,1,.148,1.117,3.569,3.569,0,0,1,2.692-1.281,3.034,3.034,0,0,1,2.84,1.847,5.613,5.613,0,0,1,.46,2.423,6.04,6.04,0,0,1-.525,2.633,3.768,3.768,0,0,1-1.473,1.653,4.192,4.192,0,0,1-2.183.563,5.36,5.36,0,0,1-1.769-.3v3.643l-2.014.172Zm5.3,4.488a4.028,4.028,0,0,0,.614-2.423,3.626,3.626,0,0,0-.509-2.154,1.615,1.615,0,0,0-1.346-.662,2.183,2.183,0,0,0-1.077.269,4.04,4.04,0,0,0-.945.74v4.711a3.144,3.144,0,0,0,.7.232,3.815,3.815,0,0,0,.792.086,2.095,2.095,0,0,0,1.771-.8Z" transform="translate(-5.842 107.481)" fill="#252525"/><path d="M307.537,88.2a4.9,4.9,0,0,1-2.006-2.065,6.779,6.779,0,0,1-.7-3.179,6.649,6.649,0,0,1,.808-3.379,5.2,5.2,0,0,1,2.2-2.086,6.877,6.877,0,0,1,3.118-.7,8.158,8.158,0,0,1,1.944.226,8.252,8.252,0,0,1,1.723.614l-.522,1.548a7.15,7.15,0,0,0-3.066-.765,4.291,4.291,0,0,0-2.154.538,3.581,3.581,0,0,0-1.44,1.545,5.422,5.422,0,0,0-.512,2.461,5.983,5.983,0,0,0,.393,2.24,3.32,3.32,0,0,0,1.249,1.551,3.77,3.77,0,0,0,2.154.571,7.18,7.18,0,0,0,1.174-.1,5.938,5.938,0,0,0,1.1-.285v-2.4h-2.73V82.968h4.687v4.978a10.461,10.461,0,0,1-2.124.724,9.912,9.912,0,0,1-2.213.253,6.254,6.254,0,0,1-3.08-.727Z" transform="translate(-34.345 116.98)" fill="#252525"/><path d="M358.468,98.254a7.737,7.737,0,0,1-.14-1.166,3.882,3.882,0,0,1-1.209.942,3.6,3.6,0,0,1-1.683.388,3.168,3.168,0,0,1-1.384-.3,2.269,2.269,0,0,1-.988-.9,2.74,2.74,0,0,1-.369-1.462,2.5,2.5,0,0,1,.923-2.041,4.826,4.826,0,0,1,3.072-.762,11.261,11.261,0,0,1,1.6.113V92.9a2.229,2.229,0,0,0-.5-1.642,1.987,1.987,0,0,0-1.427-.477,5.64,5.64,0,0,0-1.378.188,7.23,7.23,0,0,0-1.3.447l-.318-1.465a7.751,7.751,0,0,1,1.416-.45,8.313,8.313,0,0,1,1.86-.2,4.848,4.848,0,0,1,1.938.347,2.541,2.541,0,0,1,1.247,1.19,4.859,4.859,0,0,1,.45,2.27v3.5q0,.538.065,1.653Zm-1.206-1.615a3.245,3.245,0,0,0,1.026-.751V94.272a13.044,13.044,0,0,0-1.346-.089,2.747,2.747,0,0,0-1.726.4,1.345,1.345,0,0,0-.477,1.077,1.233,1.233,0,0,0,.347.964,1.346,1.346,0,0,0,.942.315A2.825,2.825,0,0,0,357.262,96.639Z" transform="translate(-70.705 107.479)" fill="#252525"/><path d="M390.737,84.436V74.045l2-.162v10.2a1.271,1.271,0,0,0,.191.808.743.743,0,0,0,.608.234,2.186,2.186,0,0,0,.538-.092l.237,1.443a3.468,3.468,0,0,1-.7.183,4.775,4.775,0,0,1-.778.07q-2.1-.013-2.1-2.288Z" transform="translate(-99.604 119.187)" fill="#252525"/><path d="M411.583,84.436V74.045l2.006-.162v10.2a1.27,1.27,0,0,0,.191.808.742.742,0,0,0,.609.234,2.188,2.188,0,0,0,.538-.092l.234,1.443a3.429,3.429,0,0,1-.695.183,4.766,4.766,0,0,1-.78.07q-2.1-.013-2.1-2.288Z" transform="translate(-115.44 119.187)" fill="#252525"/><path d="M436.127,94.062h-5.754q.138,2.765,2.633,2.765a5.646,5.646,0,0,0,1.268-.151,7.6,7.6,0,0,0,1.242-.4l.441,1.378a7.516,7.516,0,0,1-3.316.716,4.85,4.85,0,0,1-2.364-.538,3.388,3.388,0,0,1-1.448-1.524,5.413,5.413,0,0,1-.485-2.4,5.657,5.657,0,0,1,.514-2.509,3.734,3.734,0,0,1,1.43-1.615,4.013,4.013,0,0,1,2.116-.555,3.554,3.554,0,0,1,2.081.584,3.46,3.46,0,0,1,1.239,1.553,5.5,5.5,0,0,1,.4,2.154Zm-1.963-1.279a2.53,2.53,0,0,0-.538-1.578,1.616,1.616,0,0,0-1.263-.539,1.7,1.7,0,0,0-1.276.539,2.809,2.809,0,0,0-.665,1.572Z" transform="translate(-128.17 107.531)" fill="#252525"/><path d="M466.863,91.674c0-.482-.024-1.22-.067-2.208h1.884c.032.245.063.538.095.875s.048.616.059.829a7.274,7.274,0,0,1,.69-.975,2.8,2.8,0,0,1,.792-.644,2.087,2.087,0,0,1,1.031-.25,2.775,2.775,0,0,1,.808.1l-.252,1.745a2.316,2.316,0,0,0-1.885.269,5.1,5.1,0,0,0-1.15,1.19v5.654h-2Z" transform="translate(-157.382 107.474)" fill="#252525"/><path d="M491.454,102.381a4.866,4.866,0,0,1-.725-.175l.366-1.467a5.147,5.147,0,0,0,.514.11,3.508,3.508,0,0,0,.588.054q1.345,0,2-1.72l.131-.326-3.244-8.868h2.153l1.648,4.956a16.183,16.183,0,0,1,.512,1.946c.153-.635.331-1.271.538-1.906l1.643-5h2.027L496.378,98.9a9.163,9.163,0,0,1-.988,2.038,3.45,3.45,0,0,1-1.249,1.147,3.735,3.735,0,0,1-1.742.377,5.5,5.5,0,0,1-.945-.078Z" transform="translate(-175.563 106.953)" fill="#252525"/><path d="M178.74,30.668h3.581l-.1.867h-2.436v1.677h2.3v.808h-2.3v1.858h2.566l-.089.88H178.74Z" transform="translate(61.438 152.015)" fill="#252525"/><path d="M197.458,33.651l-1.885-2.983h1.2l1.281,2.191,1.346-2.191h1.16l-1.885,2.945,2.038,3.144H199.5l-1.451-2.4-1.478,2.4h-1.16Z" transform="translate(48.775 152.015)" fill="#252525"/><path d="M220.675,30.668h1.642a2.872,2.872,0,0,1,1.771.471A1.615,1.615,0,0,1,224.7,32.5a1.976,1.976,0,0,1-.269,1.058,1.812,1.812,0,0,1-.767.695,2.531,2.531,0,0,1-1.131.242,4.577,4.577,0,0,1-.808-.083v2.345h-1.053Zm2.638,2.719a1.1,1.1,0,0,0,.337-.859.932.932,0,0,0-.342-.808,1.723,1.723,0,0,0-1.01-.248h-.571v2.154a3.985,3.985,0,0,0,.606.062,1.4,1.4,0,0,0,.98-.3Z" transform="translate(29.582 152.015)" fill="#252525"/><path d="M241.757,30.668h1.05v5.191h2.52l-.089.9h-3.481Z" transform="translate(13.568 152.015)" fill="#252525"/><path d="M258.911,36.187a2.525,2.525,0,0,1-1.023-1.077,3.5,3.5,0,0,1-.353-1.615,3.6,3.6,0,0,1,.377-1.685,2.628,2.628,0,0,1,1.077-1.115,3.367,3.367,0,0,1,1.683-.382,3.15,3.15,0,0,1,1.586.38,2.517,2.517,0,0,1,1.015,1.077,3.5,3.5,0,0,1,.347,1.6,3.614,3.614,0,0,1-.38,1.7,2.674,2.674,0,0,1-1.077,1.115,3.363,3.363,0,0,1-1.656.393,3.136,3.136,0,0,1-1.6-.39Zm2.725-.746a1.775,1.775,0,0,0,.662-.808,3.051,3.051,0,0,0,.218-1.187,3.3,3.3,0,0,0-.194-1.171,1.732,1.732,0,0,0-.619-.808,2.087,2.087,0,0,0-2.178,0,1.884,1.884,0,0,0-.668.829,2.828,2.828,0,0,0-.224,1.144,3.16,3.16,0,0,0,.21,1.185,1.734,1.734,0,0,0,1.715,1.125,1.868,1.868,0,0,0,1.077-.31Z" transform="translate(1.582 152.287)" fill="#252525"/><path d="M287.725,30.648h1.906a2.531,2.531,0,0,1,1.58.417,1.413,1.413,0,0,1,.538,1.19,1.8,1.8,0,0,1-.194.851,1.886,1.886,0,0,1-.479.6,2.156,2.156,0,0,1-.592.339l1.885,2.692h-1.225l-1.586-2.423h-.773v2.423h-1.061Zm1.65,2.881a1.471,1.471,0,0,0,.676-.148,1.109,1.109,0,0,0,.46-.412,1.2,1.2,0,0,0,.164-.627.77.77,0,0,0-.291-.67,1.416,1.416,0,0,0-.845-.213h-.762v2.081Z" transform="translate(-21.352 152.035)" fill="#252525"/><path d="M310.461,30.668h3.589l-.1.867h-2.423v1.677H313.8v.808h-2.3v1.858h2.566l-.078.88h-3.529Z" transform="translate(-38.623 152.015)" fill="#252525"/><path d="M341.636,30.668h1.05v6.09h-1.05Z" transform="translate(-62.305 152.015)" fill="#252525"/><path d="M351.615,31.546h-1.885l.092-.878h4.738l-.1.878h-1.8v5.212h-1.053Z" transform="translate(-68.454 152.015)" fill="#252525"/><path d="M384.462,36.156a2.52,2.52,0,0,1-1.02-1.077,3.464,3.464,0,0,1-.355-1.615,3.6,3.6,0,0,1,.377-1.685,2.641,2.641,0,0,1,1.077-1.115,3.381,3.381,0,0,1,1.672-.393,3.136,3.136,0,0,1,1.6.39,2.5,2.5,0,0,1,1.015,1.077,3.5,3.5,0,0,1,.35,1.6,3.585,3.585,0,0,1-.382,1.7,2.658,2.658,0,0,1-1.077,1.115,3.347,3.347,0,0,1-1.656.393,3.137,3.137,0,0,1-1.6-.39Zm2.727-.746a1.785,1.785,0,0,0,.66-.808,3.05,3.05,0,0,0,.218-1.187,3.3,3.3,0,0,0-.194-1.171,1.725,1.725,0,0,0-.617-.808,2.089,2.089,0,0,0-2.181,0,1.884,1.884,0,0,0-.668.829,2.873,2.873,0,0,0-.223,1.144,3.161,3.161,0,0,0,.21,1.185,1.8,1.8,0,0,0,.643.824,1.831,1.831,0,0,0,1.077.3,1.884,1.884,0,0,0,1.074-.31Z" transform="translate(-93.792 152.318)" fill="#252525"/><path d="M413.284,30.668h1.206l3.013,4.719c-.027-.45-.037-.861-.037-1.241V30.668h.974v6.09h-1.168l-3.059-4.795c.03.538.046,1.026.046,1.448v3.346h-.975Z" transform="translate(-116.732 152.015)" fill="#252525"/><path d="M59.076,30.8H47.9c-5.269,0-7.2,1.928-7.2,7.2V49.181c0,5.269,1.928,7.2,7.2,7.2H59.076c5.269,0,7.2-1.928,7.2-7.2V38c.005-5.269-1.922-7.2-7.2-7.2Z" transform="translate(166.295 151.913)" fill="#c8102e" fill-rule="evenodd"/><path d="M54.784,84.006h.678v3.346h-.678v-1.36H53.252v1.36h-.678V84.006h.678v1.346h1.532Zm3.823,1.914c0,.538-.269.835-.759.835s-.765-.3-.765-.864V84.006H56.4v1.911A1.325,1.325,0,0,0,57.837,87.4a1.346,1.346,0,0,0,1.448-1.508V84.006h-.678Zm7.84.385-.759-2.3H65.13l-.754,2.3-.74-2.3h-.721l1.166,3.346h.563l.756-2.2.759,2.2h.568l1.166-3.346h-.705Zm2.66-.4h1.236V85.3H69.107V84.62H70.9v-.614H68.439v3.338h2.525v-.6H69.107Zm2.665,1.435h.67V84.006h-.67Zm-11.146-.692-.3.695H59.63l1.462-3.341h.6l1.467,3.341h-.7l-.288-.692Zm.253-.6H61.9l-.511-1.2Z" transform="translate(157.279 111.497)" fill="#fff"/><path d="M80.454,52.845A4.259,4.259,0,0,1,76.2,48.589h.6a3.656,3.656,0,0,0,7.312,0h.6a4.259,4.259,0,0,1-4.256,4.256Z" transform="translate(139.333 138.401)" fill="#fff"/></g></g></svg>