<svg xmlns="http://www.w3.org/2000/svg" width="40.859" height="40.931" viewBox="0 0 40.859 40.931">
  <path id="Icon_feather-phone-call" data-name="Icon feather-phone-call" d="M26.519,8.719a9.024,9.024,0,0,1,7.129,7.129M26.519,1.5A16.243,16.243,0,0,1,40.867,15.83m-1.8,14.4v5.414a3.61,3.61,0,0,1-3.935,3.61,35.718,35.718,0,0,1-15.576-5.541A35.194,35.194,0,0,1,8.723,22.887,35.718,35.718,0,0,1,3.182,7.239,3.61,3.61,0,0,1,6.774,3.3h5.414a3.61,3.61,0,0,1,3.61,3.1,23.174,23.174,0,0,0,1.263,5.072,3.61,3.61,0,0,1-.812,3.808l-2.292,2.292A28.877,28.877,0,0,0,24.786,28.41l2.292-2.292a3.61,3.61,0,0,1,3.808-.812,23.174,23.174,0,0,0,5.072,1.263A3.61,3.61,0,0,1,39.062,30.233Z" transform="translate(-1.667 0.156)" fill="none" stroke="#f21567" stroke-linecap="round" stroke-linejoin="round" stroke-width="3"/>
</svg>
