<svg xmlns="http://www.w3.org/2000/svg" width="147.016" height="53.566" viewBox="0 0 147.016 53.566">
  <g id="Group_2" data-name="Group 2" transform="translate(-27 -100.217)">
    <g id="Group_11479" data-name="Group 11479" transform="translate(-173.566 -5489.229)">
      <path id="path14" d="M141.571,53.566H5.445C2.452,53.566,0,50.552,0,46.871V6.7C0,3.015,2.452,0,5.445,0H141.571c2.993,0,5.445,3.015,5.445,6.7V46.871C147.017,50.552,144.565,53.566,141.571,53.566Z" transform="translate(200.566 5589.446)" fill="#242424"/>
      <g id="Group_10753" data-name="Group 10753" transform="translate(217.613 5603.391)">
        <path id="Path_6875" data-name="Path 6875" d="M3532.384,579.635a3.125,3.125,0,0,1-2.254-.908,3.2,3.2,0,0,1,0-4.515,3.115,3.115,0,0,1,2.254-.912,3.249,3.249,0,0,1,1.258.257,2.51,2.51,0,0,1,.965.68l.047.056-.633.632-.056-.065a1.952,1.952,0,0,0-1.58-.669,2.228,2.228,0,0,0-1.579.632,2.382,2.382,0,0,0,0,3.3,2.252,2.252,0,0,0,1.58.631,2.211,2.211,0,0,0,1.614-.635,1.711,1.711,0,0,0,.469-1.062H3532.3v-.87h3.038l.014.062a2.073,2.073,0,0,1,.047.464,2.755,2.755,0,0,1-.763,2.029,3.018,3.018,0,0,1-2.252.893Z" transform="translate(-3500.617 -573.3)" fill="#f5f5f5"/>
        <path id="Path_6876" data-name="Path 6876" d="M4146.147,591.063H4142.5V585h3.647v.885h-2.718V587.6h2.451v.871h-2.451v1.712h2.718Z" transform="translate(-4106.77 -584.864)" fill="#f5f5f5"/>
        <path id="Path_6877" data-name="Path 6877" d="M4513.3,591.063h-.928v-5.179H4510.7V585h4.267v.885H4513.3Z" transform="translate(-4470.678 -584.864)" fill="#f5f5f5"/>
        <path id="Path_6878" data-name="Path 6878" d="M5119.127,591.063h-.928V585h.928Z" transform="translate(-5071.099 -584.864)" fill="#f5f5f5"/>
        <path id="Path_6879" data-name="Path 6879" d="M5269.9,591.063h-.923v-5.179H5267.3V585h4.271v.885H5269.9v5.179Z" transform="translate(-5218.46 -584.864)" fill="#f5f5f5"/>
        <path id="Path_6880" data-name="Path 6880" d="M5838.655,579.833a3.05,3.05,0,0,1-2.251-.918,3.246,3.246,0,0,1,0-4.5,3.2,3.2,0,0,1,4.494.006,3.234,3.234,0,0,1,0,4.491h0a3.045,3.045,0,0,1-2.243.921Zm-1.57-1.526a2.24,2.24,0,0,0,3.135,0,2.419,2.419,0,0,0,0-3.284,2.24,2.24,0,0,0-3.134,0A2.422,2.422,0,0,0,5837.085,578.307Z" transform="translate(-5780.04 -573.497)" fill="#f5f5f5"/>
        <path id="Path_6881" data-name="Path 6881" d="M6460.365,591.063h-.925l-.024-.037L6456.5,586.4l.027.905v3.761h-.923V585h1.057l2.809,4.44-.026-.9V585h.927Z" transform="translate(-6392.912 -584.864)" fill="#f5f5f5"/>
        <path id="path46" d="M3536.3,1445.334a4.155,4.155,0,1,0,3.017,1.192A4.19,4.19,0,0,0,3536.3,1445.334Zm0,6.728a2.543,2.543,0,1,1,2.4-2.538,2.434,2.434,0,0,1-2.395,2.539Zm-9.278-6.728a4.151,4.151,0,1,0,3.014,1.193,4.19,4.19,0,0,0-3.014-1.193Zm0,6.728a2.544,2.544,0,1,1,2.389-2.538,2.437,2.437,0,0,1-2.39,2.539Zm-11.041-5.444v1.781h4.3a3.681,3.681,0,0,1-.978,2.235,4.449,4.449,0,0,1-3.324,1.3,4.728,4.728,0,0,1,0-9.456,4.587,4.587,0,0,1,3.24,1.27l1.269-1.254a6.311,6.311,0,0,0-4.51-1.794,6.509,6.509,0,1,0,0,13.013,6.052,6.052,0,0,0,4.594-1.828,5.829,5.829,0,0,0,1.557-4.155,5.983,5.983,0,0,0-.1-1.112Zm45.149,1.38a3.925,3.925,0,0,0-3.63-2.664,4,4,0,0,0-4,4.19,4.121,4.121,0,0,0,4.2,4.188,4.212,4.212,0,0,0,3.533-1.857l-1.445-.952a2.428,2.428,0,0,1-2.087,1.159,2.157,2.157,0,0,1-2.052-1.27l5.669-2.318-.189-.474Zm-5.78,1.4a2.311,2.311,0,0,1,2.213-2.443,1.649,1.649,0,0,1,1.577.889Zm-4.606,4.064h1.863v-12.311h-1.863Zm-3.052-7.189h-.062a2.953,2.953,0,0,0-2.229-.934,4.191,4.191,0,0,0,0,8.378,2.905,2.905,0,0,0,2.229-.952h.062v.6a2.158,2.158,0,0,1-2.263,2.463,2.351,2.351,0,0,1-2.136-1.5l-1.62.669a4.043,4.043,0,0,0,3.757,2.478c2.185,0,4.029-1.271,4.029-4.362v-7.523h-1.766Zm-2.132,5.794a2.556,2.556,0,1,1,2.266-2.54A2.546,2.546,0,0,1,3545.56,1452.067Zm24.294-10.917H3565.4v12.311h1.859V1448.8h2.6a3.832,3.832,0,1,0,0-7.646Zm.05,5.934h-2.647v-4.221h2.647a2.112,2.112,0,1,1,0,4.221Zm11.488-1.769a3.494,3.494,0,0,0-3.313,1.884l1.649.683a1.765,1.765,0,0,1,1.7-.9,1.786,1.786,0,0,1,1.957,1.584v.129a4.12,4.12,0,0,0-1.941-.477c-1.776,0-3.586.966-3.586,2.77a2.862,2.862,0,0,0,3.09,2.712,2.638,2.638,0,0,0,2.374-1.206h.064v.952h1.795v-4.722c0-2.191-1.655-3.413-3.791-3.413Zm-.225,6.747c-.608,0-1.454-.3-1.454-1.043,0-.953,1.056-1.318,1.97-1.318a3.363,3.363,0,0,1,1.7.414,2.247,2.247,0,0,1-2.218,1.943Zm10.551-6.478-2.136,5.338h-.064l-2.208-5.338h-2l3.318,7.459-1.893,4.15h1.941l5.114-11.609Zm-16.753,7.877h1.864V1441.15h-1.864Z" transform="translate(-3480.948 -1430.591)" fill="#f5f5f5"/>
      </g>
    </g>
    <g id="google-play" transform="translate(43.997 117.01)">
      <path id="Path_9" data-name="Path 9" d="M10.549,9.59.733,19.407A2.327,2.327,0,0,1,.01,17.695V2.3A2.359,2.359,0,0,1,.758.56Z" transform="translate(0 0.151)" fill="#4285f5"/>
      <path id="Path_10" data-name="Path 10" d="M16.8,8.861a2.407,2.407,0,0,1-1.281,2.118l-2.79,1.547L9.271,9.33,8.32,8.455,11.985,4.79l3.539,1.953A2.407,2.407,0,0,1,16.8,8.861Z" transform="translate(2.229 1.286)" fill="#f9bb04"/>
      <path id="Path_11" data-name="Path 11" d="M10.391,9.741.6.711A2.525,2.525,0,0,1,1.057.369,2.553,2.553,0,0,1,3.644.33L14.057,6.076Z" transform="translate(0.158)" fill="#34ae44"/>
      <path id="Path_12" data-name="Path 12" d="M14.81,11.751,3.649,17.9a2.526,2.526,0,0,1-1.268.33,2.471,2.471,0,0,1-1.319-.368A2.308,2.308,0,0,1,.58,17.5L10.4,7.68l.951.875,3.462,3.2Z" transform="translate(0.153 2.061)" fill="#eb4131"/>
    </g>
  </g>
</svg>
