<svg xmlns="http://www.w3.org/2000/svg" xmlns:xlink="http://www.w3.org/1999/xlink" width="508.228" height="171.788" viewBox="0 0 508.228 171.788">
  <defs>
    <filter id="Rectangle_2" x="0" y="0" width="171.788" height="171.788" filterUnits="userSpaceOnUse">
      <feOffset input="SourceAlpha"/>
      <feGaussianBlur stdDeviation="6" result="blur"/>
      <feFlood flood-opacity="0.251"/>
      <feComposite operator="in" in2="blur"/>
      <feComposite in="SourceGraphic"/>
    </filter>
  </defs>
  <g id="Group_6" data-name="Group 6" transform="translate(-358 -1019)">
    <g transform="matrix(1, 0, 0, 1, 358, 1019)" filter="url(#Rectangle_2)">
      <rect id="Rectangle_2-2" data-name="Rectangle 2" width="135.788" height="135.788" rx="33.672" transform="translate(18 18)" fill="#ffc200"/>
    </g>
    <path id="Path_5" data-name="Path 5" d="M51.975,162.271A30.493,30.493,0,0,1,82.14,132.106H157.6a30.253,30.253,0,0,1,30.165,30.165v75.458C140.362,284.686,51.975,214.719,51.975,162.271Z" transform="translate(324.025 904.894)" fill="#f26715"/>
    <path id="Path_6" data-name="Path 6" d="M82.14,132.106H157.6a30.253,30.253,0,0,1,30.165,30.165v56.267C86.577,215.381,51.975,144.649,82.14,132.106Z" transform="translate(324.025 904.894)" fill="#e30051"/>
    <path id="Path_7" data-name="Path 7" d="M117.958,176.021H94.7V149.933Z" transform="translate(324.025 904.894)" fill="#fff"/>
    <path id="Path_8" data-name="Path 8" d="M135.6,226.788a17.742,17.742,0,0,1-17.742-17.743V197.684h20.612v-20.2h-20.51L94.7,197.684c-2.911,60.774,51.54,51.934,51.54,51.934v-22.83Z" transform="translate(324.025 904.894)" fill="#fff"/>
    <g id="Group_4" data-name="Group 4" transform="translate(324.025 904.894)">
      <path id="Path_9" data-name="Path 9" d="M253.469,225.7a36.7,36.7,0,0,1-8.914,1.151c-11.982,0-18.979-5.944-18.979-17.829V189.178H218.1V178.251h7.478V166.269h12.94v11.982h13.42v10.927h-13.42V207.87c0,5.368,2.684,7.381,8.819,7.381.766,0,2.78-.1,6.134-.384Z" fill="#39414f"/>
      <path id="Path_10" data-name="Path 10" d="M302.641,225.7H290.756v-4.6a19.77,19.77,0,0,1-14.475,5.752c-10.064,0-16.391-5.848-16.391-14.187,0-8.531,6.9-13.8,17.925-13.8H289.7v-2.108c0-5.272-3.067-8.34-8.818-8.34-4.889,0-8.34,2.013-12.558,6.519l-6.71-7.956A25.872,25.872,0,0,1,282.32,177.2c12.365,0,20.321,7.19,20.321,20.322ZM289.7,207.391h-10.16c-4.218,0-6.614,1.63-6.614,4.793s2.683,5.175,6.8,5.175c5.655,0,9.969-3.929,9.969-9.393Z" fill="#39414f"/>
      <path id="Path_11" data-name="Path 11" d="M317.306,209.787c4.122,4.314,8.627,6.423,13.325,6.423,3.45,0,6.039-1.343,6.039-3.931,0-2.012-1.343-2.779-4.889-4.313l-5.081-2.108c-8.723-3.547-12.94-7.478-12.94-14.475,0-8.914,7.093-14.187,17.446-14.187,7.093,0,12.748,2.4,17.062,7.093l-6.518,7.956a15.225,15.225,0,0,0-10.64-4.5c-3.164,0-5.081,1.151-5.081,3.356,0,1.821,1.246,2.683,4.984,4.217l4.6,1.918c9.2,3.738,13.324,7.476,13.324,14.473a13.167,13.167,0,0,1-5.272,11.119q-5.176,4.027-13.229,4.027c-8.339,0-15.337-3.451-19.65-9.2Z" fill="#39414f"/>
      <path id="Path_12" data-name="Path 12" d="M381.432,177.2c9.3,0,16.487,4.41,20.609,11.7l-9.011,7c-2.971-4.314-6.422-6.9-11.406-6.9-7.285,0-12.461,5.56-12.461,12.941,0,7.573,5.176,13.036,12.461,13.036,4.888,0,8.339-2.492,11.406-6.806l9.011,6.9a22.89,22.89,0,0,1-20.609,11.79c-13.9.287-25.593-11.215-25.4-24.923C356.03,188.028,367.342,177.2,381.432,177.2Z" fill="#39414f"/>
      <path id="Path_13" data-name="Path 13" d="M433.384,177.2c13.9-.191,25.786,11.215,25.5,24.731.288,13.515-11.695,25.114-25.594,24.827-13.9.287-25.593-11.312-25.306-24.827C407.7,188.411,419.485,176.908,433.384,177.2Zm0,11.79c-7.189,0-12.27,5.464-12.27,13.037,0,7.38,5.081,12.844,12.27,12.844,7,0,12.269-5.464,12.269-12.844S440.382,188.986,433.384,188.986Z" fill="#39414f"/>
      <path id="Path_14" data-name="Path 14" d="M542.083,225.7H529.142V198.093c0-5.655-3.355-9.2-8.435-9.2s-8.723,3.642-8.723,8.915V225.7h-12.94V198.093c0-5.655-3.356-9.2-8.436-9.2-5.272,0-8.723,3.547-8.723,9.2V225.7H468.944V178.251h11.887v4.218c3.163-3.356,7.956-5.273,13.42-5.273,6.23,0,10.927,2.3,14.091,6.806a20.774,20.774,0,0,1,15.815-6.806c11.12,0,17.926,7.573,17.926,19.076Z" fill="#39414f"/>
    </g>
    <g id="Group_5" data-name="Group 5" transform="translate(324.025 904.894)">
      <path id="Path_15" data-name="Path 15" d="M226.452,250.919a2.477,2.477,0,0,1-2.847-2.847V245.1a2.955,2.955,0,0,1,.689-2.164,2.907,2.907,0,0,1,2.145-.683h1.573a2.865,2.865,0,0,1,1.833.5,2.167,2.167,0,0,1,.715,1.589.416.416,0,0,1-.091.367.486.486,0,0,1-.364.127q-.435,0-.5-.481a1.139,1.139,0,0,0-.422-.907,2.163,2.163,0,0,0-1.17-.244h-1.573a2.947,2.947,0,0,0-1.118.173,1.063,1.063,0,0,0-.585.585,2.967,2.967,0,0,0-.176,1.134v2.977a2.938,2.938,0,0,0,.176,1.127,1.075,1.075,0,0,0,.588.589,2.947,2.947,0,0,0,1.128.176h1.56a2.163,2.163,0,0,0,1.17-.244,1.139,1.139,0,0,0,.422-.907q.066-.481.5-.481a.486.486,0,0,1,.364.127.416.416,0,0,1,.091.367,2.161,2.161,0,0,1-.715,1.592,2.877,2.877,0,0,1-1.833.5Z" fill="#738090"/>
      <path id="Path_16" data-name="Path 16" d="M238.646,250.919a2.476,2.476,0,0,1-2.846-2.847v-2.99a2.454,2.454,0,0,1,2.84-2.834h1.567a2.469,2.469,0,0,1,2.84,2.847v2.977a2.472,2.472,0,0,1-2.84,2.847Zm0-.955h1.561a2.932,2.932,0,0,0,1.121-.176,1.072,1.072,0,0,0,.588-.589,2.938,2.938,0,0,0,.176-1.127V245.1a2.925,2.925,0,0,0-.176-1.121,1.084,1.084,0,0,0-.588-.592,2.888,2.888,0,0,0-1.121-.179H238.64a2.9,2.9,0,0,0-1.118.166,1.076,1.076,0,0,0-.589.585,2.911,2.911,0,0,0-.178,1.128v2.99a2.94,2.94,0,0,0,.175,1.127,1.078,1.078,0,0,0,.588.589A2.954,2.954,0,0,0,238.646,249.964Z" fill="#738090"/>
      <path id="Path_17" data-name="Path 17" d="M249.149,250.919a.425.425,0,0,1-.48-.481v-7.709a.425.425,0,0,1,.48-.481.648.648,0,0,1,.482.286l5.317,6.845h-.234v-6.65a.478.478,0,1,1,.955,0v7.709a.423.423,0,0,1-.475.481.617.617,0,0,1-.48-.286l-5.324-6.845h.234v6.65A.422.422,0,0,1,249.149,250.919Z" fill="#738090"/>
      <path id="Path_18" data-name="Path 18" d="M262.039,250.919a.425.425,0,0,1-.481-.481v-7.709a.425.425,0,0,1,.481-.481.645.645,0,0,1,.481.286l5.318,6.845H267.6v-6.65a.478.478,0,1,1,.955,0v7.709a.422.422,0,0,1-.474.481.62.62,0,0,1-.481-.286l-5.323-6.845h.233v6.65A.422.422,0,0,1,262.039,250.919Z" fill="#738090"/>
      <path id="Path_19" data-name="Path 19" d="M274.927,250.919a.425.425,0,0,1-.48-.481v-7.709a.425.425,0,0,1,.48-.481h4.733a.478.478,0,1,1,0,.955H275.4v2.861h2.724a.478.478,0,1,1,0,.955H275.4v2.945h4.258a.478.478,0,1,1,0,.955Z" fill="#738090"/>
      <path id="Path_20" data-name="Path 20" d="M287.7,250.919a2.477,2.477,0,0,1-2.847-2.847V245.1a2.956,2.956,0,0,1,.689-2.164,2.907,2.907,0,0,1,2.145-.683h1.573a2.865,2.865,0,0,1,1.833.5,2.167,2.167,0,0,1,.715,1.589.419.419,0,0,1-.09.367.49.49,0,0,1-.365.127q-.435,0-.5-.481a1.139,1.139,0,0,0-.422-.907,2.163,2.163,0,0,0-1.17-.244h-1.573a2.95,2.95,0,0,0-1.118.173,1.063,1.063,0,0,0-.585.585,2.967,2.967,0,0,0-.176,1.134v2.977a2.938,2.938,0,0,0,.176,1.127,1.075,1.075,0,0,0,.588.589,2.947,2.947,0,0,0,1.128.176h1.56a2.163,2.163,0,0,0,1.17-.244,1.139,1.139,0,0,0,.422-.907q.066-.481.5-.481a.489.489,0,0,1,.365.127.419.419,0,0,1,.09.367,2.161,2.161,0,0,1-.715,1.592,2.877,2.877,0,0,1-1.833.5Z" fill="#738090"/>
      <path id="Path_21" data-name="Path 21" d="M299.9,250.919a.491.491,0,0,1-.357-.12.474.474,0,0,1-.124-.355V243.21h-2.6a.491.491,0,0,1-.357-.12.474.474,0,0,1-.124-.355.432.432,0,0,1,.481-.48h6.162a.477.477,0,0,1,.355.123.491.491,0,0,1,.12.357.423.423,0,0,1-.475.475h-2.606v7.234a.473.473,0,0,1-.124.348A.466.466,0,0,1,299.9,250.919Z" fill="#738090"/>
      <path id="Path_22" data-name="Path 22" d="M310.554,250.919a2.738,2.738,0,0,1-1.725-.472,2.066,2.066,0,0,1-.718-1.464.452.452,0,0,1,.107-.375.49.49,0,0,1,.361-.126.468.468,0,0,1,.348.117.609.609,0,0,1,.146.35,1.051,1.051,0,0,0,.412.79,2.012,2.012,0,0,0,1.069.218h1.873a1.686,1.686,0,0,0,1.193-.322,1.655,1.655,0,0,0,.321-1.173,1.25,1.25,0,0,0-1.514-1.521h-1.665a2.357,2.357,0,1,1-.012-4.693h1.637a2.587,2.587,0,0,1,1.623.445,1.974,1.974,0,0,1,.685,1.375.426.426,0,0,1-.1.368.5.5,0,0,1-.367.126.456.456,0,0,1-.344-.121.566.566,0,0,1-.143-.347.944.944,0,0,0-.387-.695,1.856,1.856,0,0,0-.966-.2H310.75a1.538,1.538,0,0,0-1.1.3,2.187,2.187,0,0,0,.007,2.185,1.538,1.538,0,0,0,1.1.3h1.665a2.478,2.478,0,1,1,0,4.934Z" fill="#738090"/>
      <path id="Path_23" data-name="Path 23" d="M329.463,250.919q-.318,0-.449-.4l-2.43-7.631a.486.486,0,0,1,.061-.429.435.435,0,0,1,.394-.215.458.458,0,0,1,.263.088.472.472,0,0,1,.178.27l2.185,6.871h-.254l2.073-6.819a.552.552,0,0,1,.218-.3.56.56,0,0,1,.315-.1.613.613,0,0,1,.332.1.475.475,0,0,1,.214.3l2.074,6.819h-.253l2.183-6.871a.563.563,0,0,1,.18-.267.418.418,0,0,1,.256-.084.477.477,0,0,1,.468.637l-2.437,7.631a.5.5,0,0,1-.5.4h-.025a.489.489,0,0,1-.5-.4l-2.139-6.9h.254l-2.146,6.9a.579.579,0,0,1-.174.308A.527.527,0,0,1,329.463,250.919Z" fill="#738090"/>
      <path id="Path_24" data-name="Path 24" d="M342.826,250.919a.426.426,0,0,1-.481-.481v-7.7a.486.486,0,0,1,.121-.364.5.5,0,0,1,.36-.116.483.483,0,0,1,.357.116.5.5,0,0,1,.118.364v7.7a.5.5,0,0,1-.118.361A.475.475,0,0,1,342.826,250.919Z" fill="#738090"/>
      <path id="Path_25" data-name="Path 25" d="M351.777,250.919a.491.491,0,0,1-.357-.12.474.474,0,0,1-.124-.355V243.21h-2.6a.491.491,0,0,1-.357-.12.474.474,0,0,1-.124-.355.432.432,0,0,1,.481-.48h6.162a.477.477,0,0,1,.355.123.491.491,0,0,1,.12.357.423.423,0,0,1-.475.475h-2.606v7.234a.473.473,0,0,1-.124.348A.466.466,0,0,1,351.777,250.919Z" fill="#738090"/>
      <path id="Path_26" data-name="Path 26" d="M360.726,250.919a.487.487,0,0,1-.48-.481v-7.709a.487.487,0,0,1,.48-.481.45.45,0,0,1,.335.143.464.464,0,0,1,.14.338v3.322h5.356v-3.322a.469.469,0,0,1,.137-.338.449.449,0,0,1,.338-.143.487.487,0,0,1,.48.481v7.709a.487.487,0,0,1-.48.481.449.449,0,0,1-.338-.143.469.469,0,0,1-.137-.338v-3.432H361.2v3.432a.464.464,0,0,1-.14.338A.45.45,0,0,1,360.726,250.919Z" fill="#738090"/>
      <path id="Path_27" data-name="Path 27" d="M382.964,250.919a.422.422,0,0,1-.475-.481v-2.73l-2.958-4.7a.446.446,0,0,1,.15-.67.432.432,0,0,1,.663.149l2.62,4.193,2.723-4.193a.469.469,0,0,1,.292-.223.453.453,0,0,1,.358.093.407.407,0,0,1,.149.651l-3.042,4.7v2.73A.425.425,0,0,1,382.964,250.919Z" fill="#738090"/>
      <path id="Path_28" data-name="Path 28" d="M393.687,250.919a2.476,2.476,0,0,1-2.846-2.847v-2.99a2.454,2.454,0,0,1,2.84-2.834h1.567a2.469,2.469,0,0,1,2.84,2.847v2.977a2.472,2.472,0,0,1-2.84,2.847Zm0-.955h1.561a2.928,2.928,0,0,0,1.121-.176,1.072,1.072,0,0,0,.588-.589,2.938,2.938,0,0,0,.176-1.127V245.1a2.925,2.925,0,0,0-.176-1.121,1.084,1.084,0,0,0-.588-.592,2.884,2.884,0,0,0-1.121-.179h-1.567a2.9,2.9,0,0,0-1.118.166,1.079,1.079,0,0,0-.589.585,2.911,2.911,0,0,0-.178,1.128v2.99a2.94,2.94,0,0,0,.175,1.127,1.078,1.078,0,0,0,.588.589A2.954,2.954,0,0,0,393.687,249.964Z" fill="#738090"/>
      <path id="Path_29" data-name="Path 29" d="M406.493,250.919a2.477,2.477,0,0,1-2.848-2.847v-5.343a.432.432,0,0,1,.482-.481.474.474,0,0,1,.354.123.5.5,0,0,1,.12.358v5.343a2.96,2.96,0,0,0,.175,1.127,1.074,1.074,0,0,0,.589.589,2.943,2.943,0,0,0,1.128.176h1.559a2.931,2.931,0,0,0,1.122-.176,1.072,1.072,0,0,0,.588-.589,2.94,2.94,0,0,0,.175-1.127v-5.343a.432.432,0,0,1,.482-.481.475.475,0,0,1,.354.123.5.5,0,0,1,.12.358v5.343a2.472,2.472,0,0,1-2.841,2.847Z" fill="#738090"/>
      <path id="Path_30" data-name="Path 30" d="M422.385,250.945a.452.452,0,0,1-.361.072.5.5,0,0,1-.289-.235l-2.054-3.367h-2.008v3.023a.478.478,0,1,1-.955,0v-7.709a.425.425,0,0,1,.48-.481h3.042a2.146,2.146,0,0,1,2.386,2.392v.39a2.536,2.536,0,0,1-.471,1.612,2.052,2.052,0,0,1-1.368.734l1.774,2.912A.437.437,0,0,1,422.385,250.945Zm-4.712-4.485h2.567a1.214,1.214,0,0,0,1.431-1.43v-.39a1.529,1.529,0,0,0-.332-1.1,1.509,1.509,0,0,0-1.1-.335h-2.567Z" fill="#738090"/>
      <path id="Path_31" data-name="Path 31" d="M435.547,250.919a.425.425,0,0,1-.481-.481v-7.709a.478.478,0,1,1,.955,0v7.235h3.719a.478.478,0,1,1,0,.955Z" fill="#738090"/>
      <path id="Path_32" data-name="Path 32" d="M447.519,250.919a2.476,2.476,0,0,1-2.846-2.847v-2.99a2.454,2.454,0,0,1,2.84-2.834h1.567a2.469,2.469,0,0,1,2.84,2.847v2.977a2.472,2.472,0,0,1-2.84,2.847Zm0-.955h1.561a2.925,2.925,0,0,0,1.121-.176,1.072,1.072,0,0,0,.588-.589,2.938,2.938,0,0,0,.176-1.127V245.1a2.925,2.925,0,0,0-.176-1.121,1.084,1.084,0,0,0-.588-.592,2.881,2.881,0,0,0-1.121-.179h-1.567a2.9,2.9,0,0,0-1.118.166,1.079,1.079,0,0,0-.589.585,2.911,2.911,0,0,0-.178,1.128v2.99a2.94,2.94,0,0,0,.175,1.127,1.078,1.078,0,0,0,.588.589A2.954,2.954,0,0,0,447.519,249.964Z" fill="#738090"/>
      <path id="Path_33" data-name="Path 33" d="M460.026,250.919a.51.51,0,0,1-.462-.364l-3.262-7.624a.473.473,0,0,1-.037-.374.466.466,0,0,1,.284-.25.413.413,0,0,1,.624.247l3.106,7.254h-.331L463,242.554a.417.417,0,0,1,.631-.247.464.464,0,0,1,.269.25.509.509,0,0,1-.022.374l-3.289,7.624a.538.538,0,0,1-.5.364Z" fill="#738090"/>
      <path id="Path_34" data-name="Path 34" d="M469.249,250.919a.425.425,0,0,1-.481-.481v-7.709a.425.425,0,0,1,.481-.481h4.732a.478.478,0,1,1,0,.955h-4.258v2.861h2.724a.478.478,0,1,1,0,.955h-2.724v2.945h4.258a.478.478,0,1,1,0,.955Z" fill="#738090"/>
      <path id="Path_35" data-name="Path 35" d="M480.181,250.919a.425.425,0,0,1-.48-.481v-7.709a.425.425,0,0,1,.48-.481h3.134a2.8,2.8,0,0,1,3.231,3.237v2.2a2.8,2.8,0,0,1-3.231,3.237Zm.475-.955h2.659a3.474,3.474,0,0,0,1.345-.215,1.317,1.317,0,0,0,.716-.715,3.52,3.52,0,0,0,.214-1.352v-2.2a3.5,3.5,0,0,0-.214-1.345,1.331,1.331,0,0,0-.716-.719,3.431,3.431,0,0,0-1.345-.218h-2.659Z" fill="#738090"/>
      <path id="Path_36" data-name="Path 36" d="M501.833,250.919a2.476,2.476,0,0,1-2.847-2.847v-2.99a2.938,2.938,0,0,1,.692-2.161,2.908,2.908,0,0,1,2.149-.673h1.566a2.468,2.468,0,0,1,2.84,2.847v2.977a2.471,2.471,0,0,1-2.84,2.847Zm0-.955h1.56a2.925,2.925,0,0,0,1.121-.176,1.069,1.069,0,0,0,.588-.589,2.938,2.938,0,0,0,.176-1.127V245.1a2.925,2.925,0,0,0-.176-1.121,1.08,1.08,0,0,0-.588-.592,2.881,2.881,0,0,0-1.121-.179h-1.566a2.9,2.9,0,0,0-1.118.166,1.073,1.073,0,0,0-.589.585,2.909,2.909,0,0,0-.179,1.128v2.99a2.938,2.938,0,0,0,.176,1.127,1.072,1.072,0,0,0,.588.589A2.947,2.947,0,0,0,501.833,249.964Z" fill="#738090"/>
      <path id="Path_37" data-name="Path 37" d="M512.336,250.919a.425.425,0,0,1-.481-.481v-7.709a.425.425,0,0,1,.481-.481.645.645,0,0,1,.481.286l5.318,6.845H517.9v-6.65a.477.477,0,1,1,.955,0v7.709a.422.422,0,0,1-.474.481.62.62,0,0,1-.481-.286l-5.323-6.845h.233v6.65A.422.422,0,0,1,512.336,250.919Z" fill="#738090"/>
      <path id="Path_38" data-name="Path 38" d="M525.225,250.919a.425.425,0,0,1-.48-.481v-7.709a.425.425,0,0,1,.48-.481h4.733a.478.478,0,1,1,0,.955H525.7v2.861h2.724a.478.478,0,1,1,0,.955H525.7v2.945h4.258a.478.478,0,1,1,0,.955Z" fill="#738090"/>
      <path id="Path_39" data-name="Path 39" d="M537.861,250.919a2.743,2.743,0,0,1-1.726-.472,2.068,2.068,0,0,1-.717-1.464.452.452,0,0,1,.106-.375.491.491,0,0,1,.361-.126.464.464,0,0,1,.348.117.616.616,0,0,1,.147.35,1.048,1.048,0,0,0,.412.79,2.01,2.01,0,0,0,1.069.218h1.872a1.689,1.689,0,0,0,1.194-.322,1.659,1.659,0,0,0,.321-1.173,1.251,1.251,0,0,0-1.515-1.521h-1.664a2.357,2.357,0,1,1-.013-4.693h1.638a2.586,2.586,0,0,1,1.622.445,1.971,1.971,0,0,1,.686,1.375.429.429,0,0,1-.1.368.5.5,0,0,1-.367.126.459.459,0,0,1-.345-.121.565.565,0,0,1-.142-.347.944.944,0,0,0-.387-.695,1.856,1.856,0,0,0-.966-.2h-1.638a1.535,1.535,0,0,0-1.1.3,2.187,2.187,0,0,0,.007,2.185,1.538,1.538,0,0,0,1.1.3h1.664a2.478,2.478,0,1,1,0,4.934Z" fill="#738090"/>
    </g>
  </g>
</svg>
