<svg xmlns="http://www.w3.org/2000/svg" width="43.291" height="37.88" viewBox="0 0 43.291 37.88">
  <path id="Icon_awesome-server" data-name="Icon awesome-server" d="M40.585,13.073H2.706A2.706,2.706,0,0,1,0,10.367V4.956A2.706,2.706,0,0,1,2.706,2.25h37.88a2.706,2.706,0,0,1,2.706,2.706v5.411A2.706,2.706,0,0,1,40.585,13.073ZM36.527,5.632a2.029,2.029,0,1,0,2.029,2.029A2.029,2.029,0,0,0,36.527,5.632Zm-5.411,0a2.029,2.029,0,1,0,2.029,2.029A2.029,2.029,0,0,0,31.115,5.632ZM40.585,26.6H2.706A2.706,2.706,0,0,1,0,23.9V18.484a2.706,2.706,0,0,1,2.706-2.706h37.88a2.706,2.706,0,0,1,2.706,2.706V23.9A2.706,2.706,0,0,1,40.585,26.6ZM36.527,19.16a2.029,2.029,0,1,0,2.029,2.029A2.029,2.029,0,0,0,36.527,19.16Zm-5.411,0a2.029,2.029,0,1,0,2.029,2.029A2.029,2.029,0,0,0,31.115,19.16Zm9.47,20.969H2.706A2.706,2.706,0,0,1,0,37.424V32.012a2.706,2.706,0,0,1,2.706-2.706h37.88a2.706,2.706,0,0,1,2.706,2.706v5.411A2.706,2.706,0,0,1,40.585,40.13Zm-4.059-7.441a2.029,2.029,0,1,0,2.029,2.029A2.029,2.029,0,0,0,36.527,32.689Zm-5.411,0a2.029,2.029,0,1,0,2.029,2.029A2.029,2.029,0,0,0,31.115,32.689Z" transform="translate(0 -2.25)" fill="#f21567"/>
</svg>
